<svg viewBox="0 0 362 422" xmlns="http://www.w3.org/2000/svg">
  <defs>
    <filter id="a" x="0" y="0" width="2" height="2">
      <feGaussianBlur stdDeviation="3"/>
    </filter>
  </defs>
  <path d="M59 51c0 7-10 12-15 6-3-2-2-8-6-9s-9-2-13 0-3 9-7 11c-7 3-15-4-13-11l11-28 7-16c5-6 17-4 20 4l16 42v1zM34 33c1-3 1-9-2-9-4 0-4 6-3 9 0 2 5 2 5 0z" fill="#ffb200" font-family="Plump MT" font-size="72" letter-spacing="0" stroke="#b88f00" word-spacing="0"/>
  <path transform="matrix(.22636 0 0 .18388 -27 -71)" d="M170 603a24 24 0 1 1-47 0 24 24 0 0 1 47 0" fill="#fea" stroke="#a80" stroke-width="3"/>
  <path d="M9 40c0 1-1 2-3 2s-3-1-3-2l3-2 3 2" fill="#806600"/>
  <path d="M7 40l-1 1-1-1 1-1 1 1" fill="#2b2200"/>
  <path d="M7 39H6l1-1v1" fill="#fea"/>
  <path transform="matrix(.22636 0 0 .18388 -27 -71)" d="M170 603a24 24 0 1 1-47 0 24 24 0 0 1 47 0" fill="#fea" stroke="#a80" stroke-width="3"/>
  <path d="M9 40c0 1-1 2-3 2s-3-1-3-2l3-2 3 2" fill="#806600"/>
  <path d="M7 40l-1 1-1-1 1-1 1 1" fill="#2b2200"/>
  <path d="M7 39H6l1-1v1" fill="#fea"/>
  <path transform="matrix(.28275 0 0 .22969 -23 -94)" d="M170 603a24 24 0 1 1-47 0 24 24 0 0 1 47 0" fill="#fea" stroke="#a80" stroke-width="3"/>
  <path d="M22 46c0 1-1 3-3 3s-4-2-4-3 2-3 4-3 3 1 3 3" fill="#806600"/>
  <path d="M20 45l-1 1-2-1 2-1 1 1" fill="#2b2200"/>
  <path d="M20 45h-1l1-1v1" fill="#fea"/>
  <path d="M17 53s4 5-2 7" fill="none" stroke="#806600"/>
  <path d="M20 8l5 2M22 5l5 2M26 2l3 4M31 1l1 4M35 1l-1 4M38 2l-2 3M40 4l-2 2M42 6l-3 1" fill="none" stroke="#b88f00"/>
  <path d="M52 320l-1 10-2 7-6 6c-2 2-5 2-7 3l-8 1-9-1c-2 0-6-1-8-3l-7-7c-2-3-3-8-3-15v-20l1-7 2-3 1-2 3-1h6l3 2 2 4 1 7v20c0 6 2 9 7 9 2 0 4 0 5-2l1-7v-20l1-7 2-3c2-2 4-3 7-3h3l3 3 3 4v6z" fill="#ffb200" stroke="#b88f00"/>
  <path transform="matrix(.22636 0 0 .18388 6 180)" d="M170 603a24 24 0 1 1-47 0 24 24 0 0 1 47 0" fill="#fea" stroke="#a80" stroke-width="3"/>
  <path d="M42 291l-2 2-3-2c0-1 1-2 3-2s2 1 2 2" fill="#806600"/>
  <path d="M41 291l-1 1-1-1 1-1 1 1" fill="#2b2200"/>
  <path d="M41 290l-1 1v-1h1" fill="#fea"/>
  <path transform="matrix(.22636 0 0 .18388 6 180)" d="M170 603a24 24 0 1 1-47 0 24 24 0 0 1 47 0" fill="#fea" stroke="#a80" stroke-width="3"/>
  <path d="M42 291l-2 2-3-2c0-1 1-2 3-2s2 1 2 2" fill="#806600"/>
  <path d="M41 291l-1 1-1-1 1-1 1 1" fill="#2b2200"/>
  <path d="M41 290l-1 1v-1h1" fill="#fea"/>
  <path transform="matrix(.28275 0 0 .22969 10 150)" d="M170 603a24 24 0 1 1-47 0 24 24 0 0 1 47 0" fill="#fea" stroke="#a80" stroke-width="3"/>
  <path d="M56 289c0 2-2 3-4 3s-3-1-3-3 1-3 3-3 4 2 4 3" fill="#806600"/>
  <path d="M54 289l-2 1-1-1 1-1 2 1" fill="#2b2200"/>
  <path d="M54 288l-1 1v-1c0-1 0 0 0 0h1" fill="#fea"/>
  <path d="M52 298s-1 6-6 4" fill="none" stroke="#806600"/>
  <path d="M15 328l5-2M17 331l4-3M21 333l3-3M25 334l1-3M29 334v-4M32 334l-2-4M34 332l-2-3M36 329l-4-1M36 327h-4M35 325l-2 1M17 325h3M16 323l4 1" fill="none" stroke="#b88f00"/>
  <g>
    <path d="M58 196c0 6-5 10-10 9s-9-5-10-9c-3-4-3-11-8-13-3-2-6 5-5 8 1 5 0 10-5 12-5 3-13 0-13-7l-1-22 1-22c2-7 11-9 15-4 4 3 2 9 3 13 2 5 5-1 6-2l7-10c3-3 7-5 11-3 4 1 7 6 6 10s-5 7-8 10c-3 1-3 6-1 8 4 6 9 13 12 20v2z" fill="#ffb200" stroke="#b88f00"/>
    <path transform="matrix(.22636 0 0 .18388 -27 39)" d="M170 603a24 24 0 1 1-47 0 24 24 0 0 1 47 0" fill="#fea" stroke="#a80" stroke-width="3"/>
    <path d="M10 150l-3 2-3-2c0-1 1-2 3-2s3 1 3 2" fill="#806600"/>
    <path d="M8 150l-1 1-1-1 1-1 1 1" fill="#2b2200"/>
    <path d="M8 149v1l-1-1h1c1 0 0 0 0 0" fill="#fea"/>
    <path transform="matrix(.22636 0 0 .18388 -27 39)" d="M170 603a24 24 0 1 1-47 0 24 24 0 0 1 47 0" fill="#fea" stroke="#a80" stroke-width="3"/>
    <path d="M10 150l-3 2-3-2c0-1 1-2 3-2s3 1 3 2" fill="#806600"/>
    <path d="M8 150l-1 1-1-1 1-1 1 1" fill="#2b2200"/>
    <path d="M8 149v1l-1-1h1c1 0 0 0 0 0" fill="#fea"/>
    <path transform="matrix(.28275 0 0 .22969 -24 9)" d="M170 603a24 24 0 1 1-47 0 24 24 0 0 1 47 0" fill="#fea" stroke="#a80" stroke-width="3"/>
    <path d="M21 148c0 2-2 3-4 3s-3-1-3-3 1-3 3-3 4 2 4 3" fill="#806600"/>
    <path d="M19 148l-1 1-2-1 2-1 1 1" fill="#2b2200"/>
    <path d="M19 147v1l-1-1h1c1 0 0 0 0 0" fill="#fea"/>
    <path d="M13 160s-3 5-7 0" fill="none" stroke="#806600"/>
    <path d="M20 185l5 2M22 183l4 2M25 180l3 4M29 179l1 4M32 180l-1 3M34 181l-1 3M36 183l-3 2M37 185l-3 1M37 187h-3M36 189l-2-1M22 188h4M21 190h4M20 162l5-2M21 163l4-2M23 166l3-4M27 166l1-3M29 165v-4M31 164l-1-4M34 160l-4-1" fill="none" stroke="#b88f00"/>
  </g>
  <g>
    <g fill="none" stroke="none" stroke-width="0">
      <path d="M92 12h8M94 15h5M91 17h8M92 20h6M91 23h7M93 25h5M90 28h7M92 30h4"/>
    </g>
    <path d="M132 41c0 9-7 17-16 17l-25 1c-3 0-7-2-9-5-2-4-1-8-1-13V11c0-5 3-9 8-9h22c6 0 12 1 16 6 4 6 4 14-1 19-2 2 3 3 4 5l2 9zm-21-22c0-3-4-2-6-2h-5c-1 1-2 4 0 5 3 1 7 1 10-1l1-2zm2 21c0-4-5-3-8-3-2 0-5-1-5 1v5c4 2 8 1 12 0l1-3z" fill="#8a0" stroke="#668000"/>
    <path transform="matrix(.21252 0 0 .17264 75 -16)" d="M235 223a19 19 0 1 1-37 0 19 19 0 0 1 37 0" fill="#e6e6e6" stroke="#668000" stroke-width="3"/>
    <path transform="matrix(.25033 0 0 .20335 75 -19)" d="M235 223a19 19 0 1 1-37 0 19 19 0 0 1 37 0" fill="#e6e6e6" stroke="#668000" stroke-width="3"/>
    <path d="M256 232a10 10 0 1 1-20 0 10 10 0 0 1 20 0" fill="#450" stroke="#222b00" stroke-width="2" transform="matrix(.18096 0 0 .147 77 -13)"/>
    <path d="M123 22h-1-1l1-1 1 1" fill="#222b00"/>
    <path d="M123 21h-1c-1 0 0 0 0 0h1" fill="#cdde87"/>
    <path d="M256 232a10 10 0 1 1-20 0 10 10 0 0 1 20 0" fill="#450" stroke="#222b00" stroke-width="2" transform="matrix(.24408 0 0 .19827 70 -20)"/>
    <path d="M131 26l-1 1-1-1h2" fill="#222b00"/>
    <path d="M131 26h-1 1" fill="#cdde87"/>
    <path d="M88 22h-8M86 24h-5M89 27h-8M87 30h-6M88 32l-7 1M86 35h-5M88 38l-7-1M86 40h-5M118 52v6M115 54v4M111 52v6M108 53v5M102 52v6M98 54l1 4M95 52v6M92 53v5M117 8V2M113 6l1-4M110 8V2M107 7l-1-5M101 8V2M97 7V2M94 8V2M91 7l-1-5" fill="none"/>
  </g>
  <g>
    <path d="M128 194c0 3-1 5-3 6 0 1-1 2-3 2l-6 1h-16l-6-1h-3l-2-2-3-4v-38-7l2-4c2-2 4-3 7-3s5 1 7 3l2 4 1 7s-7 22 0 28c2 3 11 0 11 0l6 1 3 1 3 6z" fill="#8a0" stroke="#668000"/>
    <path d="M93 171h-7M91 174h-6M93 177h-8M91 180h-6M92 182l-7 1M90 185h-5M92 188l-7-1M91 190h-5M121 196v6M117 198l1 4M114 196v6M111 197v5M105 196v6M101 197l1 5M98 196v6M95 197l-1 5" fill="none"/>
    <path transform="matrix(.25033 0 0 .20335 70 142)" d="M235 223a19 19 0 1 1-37 0 19 19 0 0 1 37 0" fill="#e6e6e6" stroke="#668000" stroke-width="3"/>
    <path d="M256 232a10 10 0 1 1-20 0 10 10 0 0 1 20 0" fill="#450" stroke="#222b00" stroke-width="2" transform="matrix(.24408 0 0 .19827 65 141)"/>
    <path d="M126 187l-1 1-1-1h2" fill="#222b00"/>
    <path d="M127 187h-1 1" fill="#cdde87"/>
  </g>
  <g>
    <path d="M133 295v3l-2 5-10 28-4 8-3 4-7 2-5-1-5-3-2-3-2-7-11-28a70 70 0 0 1-2-8l3-6c2-2 4-3 7-3l5 1c2 0 2 2 2 4l3 6s-1 25 8 24c9 0 6-24 6-24 1-7 5-11 10-11l5 1c2 0 2 2 3 4l1 4z" fill="#8a0" stroke="#668000"/>
    <path d="M94 310l-8 2M92 313l-5 2M95 315l-7 3M95 318l-6 2M96 321l-7 2M95 323l-5 2M98 326l-7 1M97 328l-5 1M121 306l7 2M122 309l5 2M119 311l8 3M120 314l5 3M118 317l7 2M119 319l5 2M116 321l7 2M117 324l5 1" fill="none"/>
    <path transform="matrix(.25033 0 0 .20335 75 243)" d="M235 223a19 19 0 1 1-37 0 19 19 0 0 1 37 0" fill="#e6e6e6" stroke="#668000" stroke-width="3"/>
    <path d="M256 232a10 10 0 1 1-20 0 10 10 0 0 1 20 0" fill="#450" stroke="#222b00" stroke-width="2" transform="matrix(.24408 0 0 .19827 70 242)"/>
    <path d="M131 288l-1 1-1-1h2" fill="#222b00"/>
    <path d="M132 288h-1 1" fill="#cdde87"/>
  </g>
  <g>
    <path d="M211 41l-3 9c-2 3-5 5-9 7s-8 3-13 3l-6-1-6-1-4-3-4-3-5-7-2-7-1-8 2-12c1-4 3-7 6-9l8-6 12-2c6 0 11 1 14 3s7 4 8 7l3 7-3 6c-2 2-3 2-6 2l-5-1c-1-1-3-3-3-5l-2-2-3-1h-3c-4 0-6 1-7 4l-2 8v2l1 6 2 4 2 2 4 1 5-2 3-3c1-4 4-6 8-6l4 1 4 3 1 4z" fill="#c83737" stroke="#a02c2c"/>
    <path transform="matrix(.28275 0 0 .22969 134 -71)" d="M280 402a16 16 0 1 1-33 0 16 16 0 0 1 33 0" fill="#f4d7d7" stroke="#a02c2c" stroke-width="3"/>
    <path transform="matrix(.28275 0 0 .22969 142 -66)" d="M216 363a27 27 0 1 1-54 0 27 27 0 0 1 54 0" fill="#f4d7d7" stroke="#a02c2c" stroke-width="3"/>
    <path d="M201 18c0 1-2 3-4 3s-3-2-3-3 1-3 3-3 4 1 4 3M211 21c0 2-2 3-3 3l-3-3c0-2 1-2 3-2s3 1 3 2" fill="#501616"/>
    <path d="M199 18l-1 1-2-1 2-2 1 2M209 21l-2 2-1-2 1-1 2 1" fill="#280b0b"/>
    <path d="M200 17l-1 1-1-1h2" fill="#e9afaf"/>
    <path d="M210 21h-1-1l1-1 1 1" fill="#ffd5d5"/>
    <path d="M210 15c0 1-1 2-3 2s-2-1-2-2l2-2 3 2M187 8l-2 2-2-2 2-1 2 1M175 22l-2 1-1-1 1-1 2 1M177 50c0 2-3 4-5 4s-5-2-5-4 2-4 5-4 5 2 5 4M184 49c0 1-1 2-3 2s-2-1-2-2l2-2 3 2M192 53c0 2-2 4-4 4s-4-2-4-4 2-3 4-3 4 2 4 3M197 48c0 1-2 3-4 3s-4-2-4-3 2-4 4-4 4 2 4 4M181 54l-2 2-2-2 2-2 2 2M173 43l-2 2-2-2 2-1 2 1M197 53l-2 2-2-2 2-2 2 2M205 45c0 1-2 3-4 3s-3-2-3-3 1-3 3-3 4 1 4 3" fill="#a02c2c"/>
    <path d="M168 34c-2 0-3 2-3 5s2 5 4 5 4-2 4-5-2-5-5-5M169 27l-2 2 2 3c1 0 2-1 2-3s-1-2-2-2M165 19c-2 0-3 2-3 4s1 4 3 4 3-2 3-4-2-4-3-4M170 14c-1 0-3 2-3 4s2 4 3 4 4-2 4-4-2-4-4-4M164 29l-1 3 1 2 2-2-2-3M175 38l-2 2 2 2 2-2-2-2M165 14l-2 2 2 2 2-2-2-2M173 6c-2 0-3 1-3 3s1 4 3 4 3-2 3-4-1-4-3-3M182 15h-2v-2h2v2M185 7c-1-2-3-1-5 0s-2 4-1 5 4 1 5 0 2-4 1-5M182 3h-3v2h2l1-2M193 4h-5c-2 1-2 3-1 5s4 1 5 0 2-4 1-5M177 50c0 2-3 4-5 4s-5-2-5-4 2-4 5-4 5 2 5 4M175 22l-2 1-1-1 1-1 2 1" fill="#a02c2c"/>
    <path d="M177 50c0 2-3 4-5 4s-5-2-5-4 2-4 5-4 5 2 5 4M184 49c0 1-1 2-3 2s-2-1-2-2l2-2 3 2M181 54l-2 2-2-2 2-2 2 2M173 43l-2 2-2-2 2-1 2 1" fill="#a02c2c"/>
    <path d="M168 34c-2 0-3 2-3 5s2 5 4 5 4-2 4-5-2-5-5-5M169 27l-2 2 2 3c1 0 2-1 2-3s-1-2-2-2M165 19c-2 0-3 2-3 4s1 4 3 4 3-2 3-4-2-4-3-4M170 14c-1 0-3 2-3 4s2 4 3 4 4-2 4-4-2-4-4-4M164 29l-1 3 1 2 2-2-2-3M175 38l-2 2 2 2 2-2-2-2M165 14l-2 2 2 2 2-2-2-2M173 6c-2 0-3 1-3 3s1 4 3 4 3-2 3-4-1-4-3-3M182 15h-2v-2h2v2M182 3h-3v2h2l1-2M177 50c0 2-3 4-5 4s-5-2-5-4 2-4 5-4 5 2 5 4" fill="#a02c2c"/>
  </g>
  <g>
    <path d="M220 297l-1 7-7 29-2 7-2 4c-2 2-5 3-8 3h-3l-3-2-3-4-2-7-5-21-5 21-2 6-2 5-7 2c-3 0-6 0-8-2l-2-4-3-8-6-29-1-7 1-4 3-3 5-2 5 2 2 3 2 7 3 19 3-17 2-7c0-2 2-3 4-4l6-3 5 1 3 3 2 4 2 6 3 16 3-18 2-7 2-3 5-2a9 9 0 0 1 8 5l1 4z" fill="#c83737" stroke="#a02c2c"/>
    <path transform="matrix(.28275 0 0 .22969 145 201)" d="M280 402a16 16 0 1 1-33 0 16 16 0 0 1 33 0" fill="#f4d7d7" stroke="#a02c2c" stroke-width="3"/>
    <path transform="matrix(.28275 0 0 .22969 153 205)" d="M216 363a27 27 0 1 1-54 0 27 27 0 0 1 54 0" fill="#f4d7d7" stroke="#a02c2c" stroke-width="3"/>
    <path d="M211 289c0 2-1 3-3 3s-4-1-4-3 2-3 4-3 3 1 3 3M221 293l-2 2-3-2c0-1 1-2 3-2s2 1 2 2" fill="#501616"/>
    <path d="M210 289l-2 1-1-1 1-1 2 1M220 293l-2 1-2-1 2-2 2 2" fill="#280b0b"/>
    <path d="M210 289h-1l1-1v1" fill="#e9afaf"/>
    <path d="M220 292v1l-1-1h1c1 0 0 0 0 0" fill="#ffd5d5"/>
    <path d="M212 306c0 1-1 2-3 2s-2-1-2-2l2-2 3 2M171 332l-2-1-1 1 1 2 2-2M165 328l-2-3 2-3c1 0 3 1 2 3l-2 3M161 335c-2 0-3-2-3-4s1-4 3-4 3 2 3 4-1 4-3 4M160 325l-1-2 2-3 1 3c0 2-1 2-2 2M171 317c-1 0-2-1-2-3s1-2 2-2l2 2-2 3" fill="#a02c2c"/>
    <path d="M171 332l-2-1-1 1 1 2 2-2M165 328l-2-3 2-3c1 0 3 1 2 3l-2 3M161 335c-2 0-3-2-3-4s1-4 3-4 3 2 3 4-1 4-3 4M160 325l-1-2 2-3 1 3c0 2-1 2-2 2M171 317c-1 0-2-1-2-3s1-2 2-2l2 2-2 3M212 301l-2-1-1 1 1 1 2-1M205 303l-2-2 2-3c1 0 3 1 3 3s-1 2-3 2M177 315c-2 0-3-2-3-4s1-4 3-4 3 2 3 4-1 4-3 4M216 305l-1-4-2 4 2 4 1-4" fill="#a02c2c"/>
    <path d="M205 303l-2-2 2-3c1 0 3 1 3 3s-1 2-3 2M184 300c-1 0-3-2-3-4s2-4 4-4 3 2 3 4-2 4-4 4M201 334c0-2-2-3-4-3s-4 1-4 3 2 3 4 3 4-1 4-3M203 326l-2-1-2 1 2 2 2-2M211 334c0-1-2-3-4-3s-4 2-4 3 2 3 4 3 4-1 4-3M179 306l-2-2 2-2 2 2-2 2" fill="#a02c2c"/>
    <path d="M179 306l-2-2 2-2 2 2-2 2M196 310c0-1-2-2-3-1l-2 3c0 1 3 2 4 1l1-3M192 307c-1-1-2-2-3-1l-1 3h3l1-2M193 324l-2-1 1-3 2 1-1 3" fill="#a02c2c"/>
    <path d="M196 310c0-1-2-2-3-1l-2 3c0 1 3 2 4 1l1-3M192 307c-1-1-2-2-3-1l-1 3h3l1-2M193 324l-2-1 1-3 2 1-1 3M158 297c-1 0-2-1-2-3s1-3 2-3l2 3-2 3M163 313c-2 0-4-2-3-4s1-4 3-4 3 2 3 4-2 4-3 4M162 303l-1-2 1-2 2 2-2 2M163 319l-2-2 2-2 2 2-2 2M154 308c-2 0-3-2-3-3l3-3c2 0 2 1 2 3s-1 3-2 3" fill="#a02c2c"/>
    <path d="M163 313c-2 0-4-2-3-4s1-4 3-4 3 2 3 4-2 4-3 4M162 303l-1-2 1-2 2 2-2 2M163 319l-2-2 2-2 2 2-2 2M167 337l-2-1-1 1 1 1 2-1M178 324l-2-3c0-1 1-3 3-3s2 1 2 3-1 3-3 3M174 331c-2 0-3-2-3-4s1-4 3-4 3 2 3 4-1 4-3 4M174 321l-2-2 2-3c1 0 2 1 2 3s-1 2-2 2M174 334l-1-1-2 1 2 1 1-1" fill="#a02c2c"/>
    <path d="M178 324l-2-3c0-1 1-3 3-3s2 1 2 3-1 3-3 3M174 331c-2 0-3-2-3-4s1-4 3-4 3 2 3 4-1 4-3 4M174 321l-2-2 2-3c1 0 2 1 2 3s-1 2-2 2M210 317c-1 0-2-1-2-3s1-2 2-2l2 3-2 2M206 325c-2 0-3-2-3-4s1-4 3-4 3 2 3 4-1 4-3 4M205 314l-1-2 2-2 1 2-2 2" fill="#a02c2c"/>
    <path d="M210 317c-1 0-2-1-2-3s1-2 2-2l2 3-2 2M206 325c-2 0-3-2-3-4s1-4 3-4 3 2 3 4-1 4-3 4M205 314l-1-2 2-2 1 2-2 2M212 327l-2-2-1 2 1 1 2-1" fill="#a02c2c"/>
  </g>
  <g>
    <path d="M287 30l-1 8-3 8-6 8c-2 1-4 3-7 3l-10 2h-11l-6-1-3-1-3-3-1-3-1-6V15l1-5V7l2-3 3-1 3-1 5-1h11l6 1 5 1 5 3 6 6 4 8 1 10zm-20 0v-7c0-2-2-3-3-4l-3-1-5-1h-2v26h3l6-1 3-3 1-9z" fill="#08a" stroke="#006680"/>
    <path transform="matrix(.29129 0 0 .23663 215 -67)" d="M186 351a17 17 0 1 1-34 0 17 17 0 0 1 34 0" fill="#d5f6ff" stroke="#006680" stroke-width="3"/>
    <path transform="matrix(.24402 0 0 .19822 212 -53)" d="M186 351a17 17 0 1 1-34 0 17 17 0 0 1 34 0" fill="#d5f6ff" stroke="#006680" stroke-width="3"/>
    <path d="M267 17l-2 2-3-2 3-2 2 2M255 16l-2 2-2-2 2-1 2 1" fill="#045"/>
    <path d="M266 16l-1 1-1-1h2" fill="#00222b"/>
    <path d="M266 16h-1 1c1 0 0 0 0 0" fill="#aef"/>
    <path d="M254 16l-1 1-1-1h2" fill="#00222b"/>
    <path d="M254 16h-1 1" fill="#aef"/>
    <path d="M251 23h13s-4 5-8 5-5-5-5-5z" fill="#d5f6ff" fill-rule="evenodd" stroke="#045"/>
    <path d="M254 23v2M259 23v2M256 25v3" fill="none" stroke="#08a"/>
    <path d="M255 59s9-1 12-5-3-4-5-3-2 3-1 4 4-1 4-2h-3" fill="none" stroke="#006680"/>
  </g>
  <g>
    <path d="M286 188v6l-1 4-3 3c-2 2-4 3-7 3l-4-1-3-3-4-6-11-18v21l-2 4a9 9 0 0 1-10 2l-3-2-2-4-1-6v-31-5l1-3 1-3 2-2 7-2h4l4 3 3 6 11 19v-15-7l2-4 7-2h3l3 2 2 4 1 7z" fill="#08a" stroke="#006680"/>
    <path transform="matrix(.29129 0 0 .23663 233 64)" d="M186 351a17 17 0 1 1-34 0 17 17 0 0 1 34 0" fill="#d5f6ff" stroke="#006680" stroke-width="3"/>
    <path transform="matrix(.24402 0 0 .19822 230 78)" d="M186 351a17 17 0 1 1-34 0 17 17 0 0 1 34 0" fill="#d5f6ff" stroke="#006680" stroke-width="3"/>
    <path d="M285 147c0 2-1 2-3 2s-2 0-2-2 1-2 2-2l3 2M272 147l-2 2-2-2 2-1 2 1" fill="#045"/>
    <path d="M284 147l-2 1-1-1 1-1 2 1" fill="#00222b"/>
    <path d="M284 147h-1v-1l1 1" fill="#aef"/>
    <path d="M271 147l-1 1-1-1h2" fill="#00222b"/>
    <path d="M271 147h-1 1" fill="#aef"/>
    <path d="M274 154h13s-4 4-8 4-5-4-5-4z" fill="#d5f6ff" fill-rule="evenodd" stroke="#045"/>
    <path d="M277 154v1M282 154v1M279 155v3" fill="none" stroke="#08a"/>
    <path d="M268 168s-1 9 1 13 5-1 5-4-3-3-4-2 0 4 1 4l1-2M253 176s0-9-3-12-5 1-4 4 3 3 4 1 0-4-2-3 0 2 0 2" fill="none" stroke="#006680"/>
  </g>
  <g>
    <path d="M285 337l-1 5-4 3-3 1-4-1-4-3-3-5-4-7-5 8-3 4-3 3-4 1-5-1-3-3a11 11 0 0 1 0-7l1-3 2-4 8-13-6-11c-2-2-3-3-3-5l-1-5 1-3c1-1 1-3 3-3l4-1 4 1 3 2 4 6 3 5 3-5 4-6 3-2 4-1 5 1c2 1 2 1 2 3l1 3v5c0 2-2 3-4 5l-6 11 7 12 4 6v4z" fill="#08a" stroke="#006680"/>
    <path transform="matrix(.29129 0 0 .23663 202 205)" d="M186 351a17 17 0 1 1-34 0 17 17 0 0 1 34 0" fill="#d5f6ff" stroke="#006680" stroke-width="3"/>
    <path transform="matrix(.24402 0 0 .19822 200 219)" d="M186 351a17 17 0 1 1-34 0 17 17 0 0 1 34 0" fill="#d5f6ff" stroke="#006680" stroke-width="3"/>
    <path d="M255 288l-3 2-2-2 2-2 3 2M242 288l-2 2-2-2 2-1 2 1" fill="#045"/>
    <path d="M253 288l-1 1-1-1 1-1 1 1" fill="#00222b"/>
    <path d="M253 288h-1l1-1v1" fill="#aef"/>
    <path d="M241 288l-1 1-1-1 1-1 1 1" fill="#00222b"/>
    <path d="M241 288h-1c-1 0 0 0 0 0v-1l1 1" fill="#aef"/>
    <path d="M238 296h13s-4 5-8 5-5-5-5-5z" fill="#d5f6ff" fill-rule="evenodd" stroke="#045"/>
    <path d="M242 296v2M246 296v2M243 298v2" fill="none" stroke="#08a"/>
    <path d="M261 331s5-8 5-12-5-1-6 1 1 4 2 3 2-3 1-3l-2 2M262 301s-4 8-3 12 6 0 6-2-1-4-3-3-1 3 0 4 1-2 1-2" fill="none" stroke="#006680"/>
  </g>
  <g>
    <path transform="matrix(.28275 0 0 .22969 256 79)" d="M361 315a14 14 0 1 1-27 0 14 14 0 0 1 27 0" fill="#fca" stroke="#a40" stroke-width="3"/>
    <path d="M358 151l-2 2-2-2 2-1 2 1" fill="#a40"/>
    <path d="M357 151l-1 1-1-1 1-1 1 1" fill="#520"/>
    <path d="M357 151h-1l1-1v1" fill="#ffb380"/>
    <path d="M361 173c1 13-7 27-20 29-12 3-29-1-34-14-6-14-4-33 10-41 12-5 27-4 36 5 6 5 8 14 8 21zm-19 0c2-9-9-18-16-10-5 6-5 19 3 23 9 4 14-5 13-13z" fill="#f60" stroke="#b24700"/>
    <path transform="matrix(.31546 0 0 .25627 235 68)" d="M361 315a14 14 0 1 1-27 0 14 14 0 0 1 27 0" fill="#fca" stroke="#a40" stroke-width="3"/>
    <path d="M348 149l-2 2-2-2 2-2 2 2" fill="#a40"/>
    <path d="M348 149l-2 1-1-1 1-1 2 1" fill="#520"/>
    <path d="M348 148l-1 1-1-1h2" fill="#ffb380"/>
    <path d="M317 173s0 3 2 3 1-4 2-4l2 1M326 156s-2 2 0 3 3-2 4-1l1 2M320 161s-1 2 0 3 4-3 4-2l1 2M320 184s1 3 2 3l2-4 2 1M341 181s0 3 2 2 1-3 2-4 2 1 2 1M342 175s-1 2 1 2l4-2 2 1M342 171s2 2 4 0-1-2 0-3h3M318 168s0 3 1 2l3-4 1 1M318 179s0 3 1 2l3-4 1 1M339 184s-3 2-1 3h4v2M334 155s-3 0-2 2 4 0 4 1l-1 2M342 158s-2-2-3 0 2 3 2 4l-2 1M346 163s-1-3-2-1l-1 4h-2M324 190s2 3 3 1-1-4 0-4h2M334 193s3 0 3-2-4-1-4-2l1-2" fill="none" stroke="#a40"/>
    <path d="M356 156l-6 1 3 1c2 0 5-3 3-2z" fill="#fca" fill-rule="evenodd"/>
  </g>
  <g>
    <path d="M354 294c-1 9-8 15-12 23-5 6-1 15-3 22-2 10-19 7-18-3-1-6 2-14-3-19-4-7-10-14-12-22-1-10 15-12 18-2 3 3 6 15 9 6 3-6 8-15 16-12 3 1 5 4 5 7z" fill="#f60" stroke="#b24700"/>
    <path transform="matrix(.28275 0 0 .22969 257 219)" d="M361 315a14 14 0 1 1-27 0 14 14 0 0 1 27 0" fill="#fca" stroke="#a40" stroke-width="3"/>
    <path d="M359 291l-2 2-2-2 2-1 2 1" fill="#a40"/>
    <path d="M358 291l-1 1-1-1h2" fill="#520"/>
    <path d="M358 291h-1 1c1 0 0 0 0 0" fill="#ffb380"/>
    <path transform="matrix(.31546 0 0 .25627 234 208)" d="M361 315a14 14 0 1 1-27 0 14 14 0 0 1 27 0" fill="#fca" stroke="#a40" stroke-width="3"/>
    <path d="M347 289l-2 1-3-1c0-1 1-2 3-2s2 0 2 2" fill="#a40"/>
    <path d="M346 288l-1 2-2-2 2-1 1 1" fill="#520"/>
    <path d="M346 288h-1c-1 0 0 0 0 0v-1l1 1" fill="#ffb380"/>
    <path d="M321 308l-6 5M322 312l-5 3M325 313l-7 4M325 316l-5 4M328 322l-7 1M326 325h-5M328 328h-7M325 330h-4M326 319l-6 2" fill="none"/>
    <path d="M333 323s1 3 2 2l2-4 2 1M335 318s-1 2 0 2l4-2 1 1M337 314s-1 2 0 2l4-1 1 2" fill="none" stroke="#a40"/>
    <path d="M352 300c-2 1-6-1-6-1l2 3c3 0 6-3 4-2z" fill="#fca" fill-rule="evenodd"/>
  </g>
  <g>
    <path d="M355 51c0 9-12 8-19 8-8-1-21 3-25-6-2-9 0-18-1-27l1-19c4-8 14-5 21-5 8 0 23-3 22 8-2 10-12 7-19 7-4-2-9 3-3 4s13-2 18 3c6 7-4 16-11 13h-10c-3 10 10 5 16 6 5 0 10 2 10 8z" fill="#f60" stroke="#b24700"/>
    <path transform="matrix(.28275 0 0 .22969 250 -49)" d="M361 315a14 14 0 1 1-27 0 14 14 0 0 1 27 0" fill="#fca" stroke="#a40" stroke-width="3"/>
    <path d="M351 24l-1 1-2-1 2-2 1 2" fill="#a40"/>
    <path d="M351 24h-1-1l1-1 1 1" fill="#520"/>
    <path d="M351 23l-1 1v-1h1" fill="#ffb380"/>
    <path transform="matrix(.31546 0 0 .25627 231 -58)" d="M361 315a14 14 0 1 1-27 0 14 14 0 0 1 27 0" fill="#fca" stroke="#a40" stroke-width="3"/>
    <path d="M344 23c0 1-1 2-3 2s-2-1-2-2l2-2 3 2" fill="#a40"/>
    <path d="M343 23l-2 1-1-1 1-1 2 1" fill="#520"/>
    <path d="M343 22l-1 1v-1h1" fill="#ffb380"/>
    <path d="M318 23h-8M316 26h-5M318 28h-7M317 31h-6M318 34h-7M316 36h-5M318 39h-7M315 41h-5" fill="none"/>
    <path d="M329 13l2 4M327 16l2 2M333 12l-1 5M329 47l1-5M327 44l2-3M332 47l-1-4" fill="none" stroke="#a40"/>
    <path d="M345 30c2 2 6 2 6 2l-3 1c-3 0-4-4-3-3z" fill="#fca" fill-rule="evenodd"/>
    <path d="M318 23h-8M316 26h-5M318 28h-7M317 31h-6M318 34h-7M316 36h-5M318 39h-7M315 41h-5" fill="none"/>
  </g>
  <g>
    <path transform="matrix(.3308 0 0 .26872 -137 136)" d="M447 338a13 13 0 1 1-26 0 13 13 0 0 1 26 0" fill="#efa" stroke="#450" stroke-width="3"/>
    <path d="M10 228l-2 1-3-1c0-1 1-2 3-2s2 1 2 2" fill="#450"/>
    <path d="M9 228l-1 1-2-1 2-1 1 1" fill="#222b00"/>
    <path d="M9 227H8c-1 0 0 0 0 0v-1l1 1" fill="#efa"/>
    <path d="M57 236c1 10-8 19-18 19-6 0-13-1-11 7s-6 17-14 12c-8-4-3-15-5-22l1-28c2-8 12-7 19-7 9 0 20 0 25 8 2 3 3 7 3 11zm-19 0c-2-7-13-4-10 3 3 2 10 2 10-3z" fill="#aad400" stroke="#668000"/>
    <path transform="matrix(.42688 0 0 .34677 -167 115)" d="M447 338a13 13 0 1 1-26 0 13 13 0 0 1 26 0" fill="#efa" stroke="#450" stroke-width="3"/>
    <path d="M22 232c0 2-2 3-3 3s-4-1-4-3 2-2 4-2 3 1 3 2" fill="#450"/>
    <path d="M21 232l-2 2-2-2 2-1 2 1" fill="#222b00"/>
    <path d="M21 231l-1 1-1-1h2" fill="#efa"/>
    <path d="M4 236l10 4s-3 3-6 3-4-7-4-7z" fill="#efa" fill-rule="evenodd" stroke="#450"/>
    <path d="M6 237l-1 2M11 239l-2 1M6 242l1-3" fill="none" stroke="#668000"/>
    <path d="M25 261l-1 1-2-1 2-1 1 1" fill="none"/>
    <path d="M50 245c0 2-2 4-5 4s-5-2-5-4 2-4 5-4 5 2 5 4M53 228c0 2-1 3-3 3s-3-1-3-3 2-2 3-2l3 2M39 249c0 2-2 3-4 3s-4-1-4-3 2-3 4-3 4 1 4 3M46 239l-2 1-2-1 2-2 2 2M43 222c-2 0-3 1-3 2l3 3c1 0 2-1 2-3s-1-2-2-2" fill="#91b700"/>
    <path d="M15 258c-2 0-3 2-3 4s1 4 3 4 3-2 3-4-1-4-3-4M21 253c-2 0-4 2-4 4s2 4 4 4 3-2 3-4-2-4-3-4" fill="none"/>
    <path d="M38 224c-1 0-2 1-2 3s1 2 2 2l2-2-2-3M49 233l-2 2 2 2 1-2-1-2" fill="#91b700"/>
    <path d="M15 253l-1 2 1 2 2-2-2-2M23 245c-1 0-3 2-3 4s2 3 3 3 3-1 3-3-1-4-3-4M32 255l-2-1v-2l2 1v2M32 242h-2c0 1-2 2-1 3s2 0 3 0v-3" fill="none"/>
    <path d="M50 245c0 2-2 4-5 4s-5-2-5-4 2-4 5-4 5 2 5 4" fill="#91b700"/>
    <path d="M25 261l-1 1-2-1 2-1 1 1" fill="none"/>
    <path d="M50 245c0 2-2 4-5 4s-5-2-5-4 2-4 5-4 5 2 5 4M22 223c0 2-1 3-3 3s-3-1-3-3 2-2 3-2l3 2M23 269l-2 2-3-2 3-1 2 1M24 242c0 1-1 2-3 2s-2-1-2-2l2-2 3 2M43 222c-2 0-3 1-3 2l3 3c1 0 2-1 2-3s-1-2-2-2" fill="#91b700"/>
    <path d="M15 258c-2 0-3 2-3 4s1 4 3 4 3-2 3-4-1-4-3-4M21 253c-2 0-4 2-4 4s2 4 4 4 3-2 3-4-2-4-3-4" fill="none"/>
    <path d="M16 244l-2 2 2 2 2-2-2-2M42 230l-2 2 2 3c1 0 2-1 2-3s-1-2-2-2" fill="#91b700"/>
    <path d="M15 253l-1 2 1 2 2-2-2-2M23 245c-1 0-3 2-3 4s2 3 3 3 3-1 3-3-1-4-3-4M32 255l-2-1v-2l2 1v2M32 242h-2c0 1-2 2-1 3s2 0 3 0v-3" fill="none"/>
    <path d="M34 224c0 2-2 4-5 4s-5-2-5-4 2-4 5-4 5 2 5 4" fill="#91b700"/>
  </g>
  <g>
    <path d="M212 413c0 9-11 8-17 8-10 0-20 1-30-1-9-4-6-16 1-20l18-21c-7 0-15 2-20-3-6-9 5-15 13-12 10 0 19-1 29 1 8 4 4 14-2 18l-19 22c8 1 18-2 25 3l2 5z" fill="#aad400" stroke="#668000"/>
    <path transform="matrix(.3308 0 0 .26872 39 287)" d="M447 338a13 13 0 1 1-26 0 13 13 0 0 1 26 0" fill="#efa" stroke="#450" stroke-width="3"/>
    <path transform="matrix(.42688 0 0 .34677 9 265)" d="M447 338a13 13 0 1 1-26 0 13 13 0 0 1 26 0" fill="#efa" stroke="#450" stroke-width="3"/>
    <path d="M198 382c0 2-2 3-4 3s-3-1-3-3 2-2 3-2 4 1 4 2" fill="#450"/>
    <path d="M196 382l-1 2-2-2 2-1 1 1" fill="#222b00"/>
    <path d="M196 381v1l-1-1h1c1 0 0 0 0 0" fill="#efa"/>
    <path d="M186 378c0 1-1 2-3 2s-2-1-2-2l2-2 3 2" fill="#450"/>
    <path d="M185 378l-1 1-2-1 2-1 1 1" fill="#222b00"/>
    <path d="M185 377l-1 1v-1h1" fill="#efa"/>
    <path d="M175 385l11 5s-3 3-7 3-4-8-4-8z" fill="#efa" fill-rule="evenodd" stroke="#450"/>
    <path d="M178 386l-2 2M183 388l-2 2M177 391l2-2" fill="none" stroke="#668000"/>
    <path d="M208 373l-2 1-2-1 2-2 2 2M200 365c-2 0-4 3-4 5s2 5 4 5 4-2 4-5-2-5-4-5M203 408c-2 0-4 2-4 5s2 5 4 5 4-3 4-5-2-5-4-5M172 414c0 2-2 4-5 4s-5-2-5-4 3-4 5-4 5 2 5 4M175 397c0 2-1 3-3 3s-2-1-2-3 1-2 2-2l3 2M178 412l-3 1-2-1 2-2 3 2M169 408l-3 1-2-1 2-2 3 2M185 407l-2 3 2 3c1 0 3-1 3-3s-2-3-3-3M194 413c-1 0-2 1-2 3s1 2 2 2l2-2-2-3M171 402l-2 2 2 2 2-2-2-2" fill="#91b700"/>
    <path d="M172 414c0 2-2 4-5 4s-5-2-5-4 3-4 5-4 5 2 5 4" fill="#91b700"/>
    <path d="M172 414c0 2-2 4-5 4s-5-2-5-4 3-4 5-4 5 2 5 4M184 413c-1 0-2 1-2 3s1 3 2 3l2-3-2-3M180 401l-1 3c0 2 1 2 2 2l1-2-2-3M183 367c0 2-1 3-2 3l-3-3c0-2 1-2 3-2s2 1 2 2M190 367l-2 2-2-2 2-1 2 1M173 374l-2 2-2-2 2-1 2 1M190 371c-1 0-2 1-2 3s1 2 2 2l2-3c0-2-1-2-2-2M175 368l-1 3 2 2 1-2-2-3M169 366l-2 2 2 2 2-2-2-2" fill="#91b700"/>
    <path d="M179 415l-1 2-2-2 2-1 1 1M189 390c-2 0-3 1-3 4s1 3 3 3 3-1 3-4-1-3-3-3M184 383l-2 2 2 2 2-2-2-2M204 379l-2 1-1-1 1-2 2 2M181 394c-1 0-2 1-2 3s1 2 2 2l2-2-2-3" fill="none"/>
  </g>
  <g>
    <path transform="matrix(.3308 0 0 .26872 -132 -10)" d="M447 338a13 13 0 1 1-26 0 13 13 0 0 1 26 0" fill="#efa" stroke="#450" stroke-width="3"/>
    <path d="M13 81c0 1-1 2-3 2s-2-1-2-2l2-2 3 2" fill="#450"/>
    <path d="M12 81l-2 1-1-1 1-1 2 1" fill="#222b00"/>
    <path d="M12 81h-1c-1 0 0 0 0 0v-1l1 1" fill="#efa"/>
    <path d="M52 78c0 7-9 8-15 7-2 1-8-1-6 3 2 5 12-1 16 5 6 8-5 15-13 13-8-1 0 12-5 17-3 8-17 5-17-3V77c3-9 14-7 21-7 6 0 18-3 19 7v1z" fill="#aad400" stroke="#668000"/>
    <path transform="matrix(.42688 0 0 .34677 -167 -33)" d="M447 338a13 13 0 1 1-26 0 13 13 0 0 1 26 0" fill="#efa" stroke="#450" stroke-width="3"/>
    <path d="M23 84l-4 2c-2 0-3-1-3-2s2-3 3-3 4 1 4 3" fill="#450"/>
    <path d="M21 84l-1 1-2-1 2-2 1 2" fill="#222b00"/>
    <path d="M21 83v1l-1-1 1-1v1" fill="#efa"/>
    <path d="M9 89l10 5s-3 3-7 2-3-7-3-7z" fill="#efa" fill-rule="evenodd" stroke="#450"/>
    <path d="M11 90l-1 2M16 92l-2 2v-1M11 95l1-2" fill="none" stroke="#668000"/>
    <path d="M44 74c-2 0-4 2-4 4s2 4 4 4 3-2 3-4-2-4-3-4" fill="none"/>
    <path d="M26 121c0 2-3 4-5 4s-5-2-5-4 2-4 5-4 5 2 5 4M28 104l-2 2-3-2c0-1 1-2 3-2s2 1 2 2M31 118l-2 2-3-2 3-1 2 1M22 114l-2 2-3-2c0-1 1-2 3-2s2 1 2 2M18 97l-2 3 2 3c1 0 2-1 2-3s-1-3-2-3M24 108c-1 0-2 1-2 3s1 2 2 2l2-2-2-3" fill="#91b700"/>
    <path d="M26 121c0 2-3 4-5 4s-5-2-5-4 2-4 5-4 5 2 5 4" fill="#91b700"/>
    <path d="M26 121c0 2-3 4-5 4s-5-2-5-4 2-4 5-4 5 2 5 4M18 97l-2 3 2 3c1 0 2-1 2-3s-1-3-2-3M17 106l-2 2 2 2 2-2-2-2M38 94l-3 2-3-2c0-1 1-2 3-2s3 1 3 2M43 103l-2 1-2-1 2-2 2 2M35 101l-2 2-2-2 2-2 2 2M27 87l-2 3 2 3c1 0 3-1 3-3s-1-3-3-3M23 90l-2 2 2 3 1-3-1-2M42 93l-2 2 2 3 1-3-1-2" fill="#91b700"/>
    <path d="M27 87l-2 3 2 3c1 0 3-1 3-3s-1-3-3-3M27 96l-2 2 2 2 1-2-1-2M35 74c0 1-1 2-3 2s-3-1-3-2l3-2 3 2M20 72c-1 0-2 1-2 3s1 2 2 2l2-2-2-3M30 82l-2 2-2-2 2-2 2 2M25 74l-1 2 2 2 1-2-2-2M37 81l-3 2-3-2c0-1 1-3 3-3s3 1 3 3" fill="#91b700"/>
  </g>
  <g>
    <path d="M354 103v6l-1 6-2 5c-2 3-5 5-8 6l-10 2c-4 0-8 0-11-2s-6-3-8-7-3-7-3-11a8 8 0 0 1 6-9l3-1 5 2 3 3 2 6v2l2 1 3-1V83v-5l1-3 2-3 3-2 4-1 3 1 3 2 3 4v7z" fill="#f55" stroke="#c83737"/>
    <path transform="matrix(.23059 0 0 .18731 257 -108)" d="M356 980a15 15 0 1 1-30 0 15 15 0 0 1 30 0" fill="#ffd5d5" stroke="#a02c2c" stroke-width="3"/>
    <path d="M337 76l-2 1-2-1 2-2 2 2" fill="#782121"/>
    <path d="M336 76h-2l1-1 1 1" fill="#280b0b"/>
    <path transform="matrix(.27051 0 0 .21975 251 -141)" d="M356 980a15 15 0 1 1-30 0 15 15 0 0 1 30 0" fill="#ffd5d5" stroke="#a02c2c" stroke-width="3"/>
    <path d="M346 75c0 1 0 2-2 2s-2-1-2-2l2-2 2 2" fill="#782121"/>
    <path d="M345 75l-1 1-1-1 1-1 1 1" fill="#280b0b"/>
    <path d="M335 83s3 3 6 3 5-4 5-4" fill="none" stroke="#501616"/>
    <path d="M354 103h-9l-3-1M353 108h-9l-3-1M353 113h-9l-3-1M351 118l-6 1-5-2M347 124s-3 2-7 0-4-5-4-5M339 127l-6-2-2-4M354 98l-9 1-3-1" fill="none" stroke="#c83737"/>
  </g>
  <g>
    <path d="M359 227l-3 6-3 2h-11v28l-1 7-2 4a9 9 0 0 1-10 2l-3-2-2-4-1-7v-28h-12l-2-2-3-6 3-6 3-2h41c2 0 2 1 3 2l3 6z" fill="#f55" stroke="#c83737"/>
    <path transform="matrix(.23059 0 0 .18731 250 36)" d="M356 980a15 15 0 1 1-30 0 15 15 0 0 1 30 0" fill="#ffd5d5" stroke="#a02c2c" stroke-width="3"/>
    <path d="M329 220l-2 2-1-2 1-2 2 2" fill="#782121"/>
    <path d="M328 220l-1 1v-1-1l1 1" fill="#280b0b"/>
    <path transform="matrix(.27051 0 0 .21975 243 4)" d="M356 980a15 15 0 1 1-30 0 15 15 0 0 1 30 0" fill="#ffd5d5" stroke="#a02c2c" stroke-width="3"/>
    <path d="M339 219l-2 2-3-2c0-1 1-2 3-2s2 1 2 2" fill="#782121"/>
    <path d="M338 219l-1 1-1-1 1-1 1 1" fill="#280b0b"/>
    <path d="M329 227s4 3 6 3 5-4 5-4" fill="none" stroke="#501616"/>
    <path d="M342 258l-8 1-4-2M341 263h-8l-4-1M341 268h-9l-3-1M339 273l-6 1-5-2M342 253l-8 2-4-2" fill="none" stroke="#c83737"/>
  </g>
  <g>
    <path d="M273 114v7l-2 4c-2 2-5 3-7 3-3 0-5-1-7-3l-2-4-1-7V83l1-7 2-4 1-1 3-1 3-1 3 1 3 2 3 4v7z" fill="#00aad4" stroke="#006680"/>
    <path transform="matrix(.31335 0 0 .25454 93 -74)" d="M551 600c0 14-12 25-28 25s-28-11-28-25 13-25 28-25 28 11 28 25" fill="#d5f6ff" stroke="#666" stroke-width="3"/>
    <path d="M259 76l-2 2-2-2 2-2 2 2" fill="#006680"/>
    <path d="M258 76l-1 1-1-1 1-1 1 1" fill="#045"/>
    <path transform="matrix(.28275 0 0 .22969 121 -51)" d="M495 619a8 8 0 1 1-15 0 8 8 0 0 1 15 0" fill="#5df" filter="url(#a)"/>
    <path transform="matrix(.28275 0 0 .22969 126 -40)" d="M495 619a8 8 0 1 1-15 0 8 8 0 0 1 15 0" fill="#5df" filter="url(#a)"/>
    <path transform="matrix(.28275 0 0 .22969 129 -47)" d="M495 619a8 8 0 1 1-15 0 8 8 0 0 1 15 0" fill="#5df" filter="url(#a)"/>
    <path transform="matrix(.28275 0 0 .22969 122 -34)" d="M495 619a8 8 0 1 1-15 0 8 8 0 0 1 15 0" fill="#5df" filter="url(#a)"/>
    <path transform="matrix(.28275 0 0 .22969 128 -28)" d="M495 619a8 8 0 1 1-15 0 8 8 0 0 1 15 0" fill="#5df" filter="url(#a)"/>
    <path transform="matrix(.28275 0 0 .22969 130 -35)" d="M495 619a8 8 0 1 1-15 0 8 8 0 0 1 15 0" fill="#5df" filter="url(#a)"/>
    <path transform="matrix(.28275 0 0 .22969 121 -43)" d="M495 619a8 8 0 1 1-15 0 8 8 0 0 1 15 0" fill="#5df" filter="url(#a)"/>
    <path transform="matrix(.28275 0 0 .22969 132 -60)" d="M495 619a8 8 0 1 1-15 0 8 8 0 0 1 15 0" fill="#5df" filter="url(#a)"/>
    <path transform="matrix(.28275 0 0 .22969 127 -55)" d="M495 619a8 8 0 1 1-15 0 8 8 0 0 1 15 0" fill="#5df" filter="url(#a)"/>
    <path transform="matrix(.28275 0 0 .22969 121 -26)" d="M495 619a8 8 0 1 1-15 0 8 8 0 0 1 15 0" fill="#5df" filter="url(#a)"/>
    <path transform="matrix(.28275 0 0 .22969 127 -18)" d="M495 619a8 8 0 1 1-15 0 8 8 0 0 1 15 0" fill="#5df" filter="url(#a)"/>
  </g>
  <g>
    <path d="M284 256l-2 8-4 6-8 4-11 2-14-2c-4-1-6-4-8-6s-2-3-2-5l1-4 3-4 5-1 4 1 5 3 6 3c4 0 6-1 6-3l-1-3-3-1-6-1-9-3c-3-1-5-3-7-6a16 16 0 0 1 0-19c2-3 5-5 8-6l12-2 14 2c3 1 6 2 7 4l1 4c0 3 0 5-2 6l-5 3h-3l-2-1-2-1-2-1-3-1-3-1c-4 0-5 1-5 3l1 1 3 1 5 1a120 120 0 0 1 11 4l3 1 3 3 2 3 1 4 1 4z" fill="#00aad4" stroke="#006680"/>
    <path transform="matrix(.31335 0 0 .25454 114 75)" d="M551 600c0 14-12 25-28 25s-28-11-28-25 13-25 28-25 28 11 28 25" fill="#d5f6ff" stroke="#666" stroke-width="3"/>
    <path d="M280 225l-2 1-2-1 2-2 2 2" fill="#006680"/>
    <path d="M279 224l-1 1-1-1h2" fill="#045"/>
    <path transform="matrix(.28275 0 0 .22969 110 87)" d="M495 619a8 8 0 1 1-15 0 8 8 0 0 1 15 0" fill="#5df" filter="url(#a)"/>
    <path transform="matrix(.28275 0 0 .22969 113 80)" d="M495 619a8 8 0 1 1-15 0 8 8 0 0 1 15 0" fill="#5df" filter="url(#a)"/>
    <path transform="matrix(.28275 0 0 .22969 106 93)" d="M495 619a8 8 0 1 1-15 0 8 8 0 0 1 15 0" fill="#5df" filter="url(#a)"/>
    <path transform="matrix(.28275 0 0 .22969 112 99)" d="M495 619a8 8 0 1 1-15 0 8 8 0 0 1 15 0" fill="#5df" filter="url(#a)"/>
    <path transform="matrix(.28275 0 0 .22969 112 93)" d="M495 619a8 8 0 1 1-15 0 8 8 0 0 1 15 0" fill="#5df" filter="url(#a)"/>
    <path transform="matrix(.28275 0 0 .22969 105 83)" d="M495 619a8 8 0 1 1-15 0 8 8 0 0 1 15 0" fill="#5df" filter="url(#a)"/>
    <path transform="matrix(.28275 0 0 .22969 104 101)" d="M495 619a8 8 0 1 1-15 0 8 8 0 0 1 15 0" fill="#5df" filter="url(#a)"/>
    <path transform="matrix(.28275 0 0 .22969 113 107)" d="M495 619a8 8 0 1 1-15 0 8 8 0 0 1 15 0" fill="#5df" filter="url(#a)"/>
    <path transform="matrix(.28275 0 0 .22969 135 111)" d="M495 619a8 8 0 1 1-15 0 8 8 0 0 1 15 0" fill="#5df" filter="url(#a)"/>
    <path transform="matrix(.28275 0 0 .22969 138 104)" d="M495 619a8 8 0 1 1-15 0 8 8 0 0 1 15 0" fill="#5df" filter="url(#a)"/>
    <path transform="matrix(.28275 0 0 .22969 131 117)" d="M495 619a8 8 0 1 1-15 0 8 8 0 0 1 15 0" fill="#5df" filter="url(#a)"/>
    <path transform="matrix(.28275 0 0 .22969 137 123)" d="M495 619a8 8 0 1 1-15 0 8 8 0 0 1 15 0" fill="#5df" filter="url(#a)"/>
    <path transform="matrix(.28275 0 0 .22969 138 116)" d="M495 619a8 8 0 1 1-15 0 8 8 0 0 1 15 0" fill="#5df" filter="url(#a)"/>
    <path transform="matrix(.28275 0 0 .22969 130 107)" d="M495 619a8 8 0 1 1-15 0 8 8 0 0 1 15 0" fill="#5df" filter="url(#a)"/>
    <path transform="matrix(.28275 0 0 .22969 130 125)" d="M495 619a8 8 0 1 1-15 0 8 8 0 0 1 15 0" fill="#5df" filter="url(#a)"/>
    <path transform="matrix(.28275 0 0 .22969 142 111)" d="M495 619a8 8 0 1 1-15 0 8 8 0 0 1 15 0" fill="#5df" filter="url(#a)"/>
    <path transform="matrix(.28275 0 0 .22969 123 86)" d="M495 619a8 8 0 1 1-15 0 8 8 0 0 1 15 0" fill="#5df" filter="url(#a)"/>
    <path transform="matrix(.28275 0 0 .22969 127 79)" d="M495 619a8 8 0 1 1-15 0 8 8 0 0 1 15 0" fill="#5df" filter="url(#a)"/>
    <path transform="matrix(.28275 0 0 .22969 119 83)" d="M495 619a8 8 0 1 1-15 0 8 8 0 0 1 15 0" fill="#5df" filter="url(#a)"/>
    <path transform="matrix(.28275 0 0 .22969 129 88)" d="M495 619a8 8 0 1 1-15 0 8 8 0 0 1 15 0" fill="#5df" filter="url(#a)"/>
    <path transform="matrix(.28275 0 0 .22969 110 119)" d="M495 619a8 8 0 1 1-15 0 8 8 0 0 1 15 0" fill="#5df" filter="url(#a)"/>
    <path transform="matrix(.28275 0 0 .22969 105 116)" d="M495 619a8 8 0 1 1-15 0 8 8 0 0 1 15 0" fill="#5df" filter="url(#a)"/>
    <path transform="matrix(.28275 0 0 .22969 117 119)" d="M495 619a8 8 0 1 1-15 0 8 8 0 0 1 15 0" fill="#5df" filter="url(#a)"/>
    <path transform="matrix(.28275 0 0 .22969 122 108)" d="M495 619a8 8 0 1 1-15 0 8 8 0 0 1 15 0" fill="#5df" filter="url(#a)"/>
    <path transform="matrix(.28275 0 0 .22969 121 102)" d="M495 619a8 8 0 1 1-15 0 8 8 0 0 1 15 0" fill="#5df" filter="url(#a)"/>
    <path transform="matrix(.28275 0 0 .22969 130 101)" d="M495 619a8 8 0 1 1-15 0 8 8 0 0 1 15 0" fill="#5df" filter="url(#a)"/>
    <path transform="matrix(.28275 0 0 .22969 121 130)" d="M495 619a8 8 0 1 1-15 0 8 8 0 0 1 15 0" fill="#5df" filter="url(#a)"/>
    <path transform="matrix(.28275 0 0 .22969 122 123)" d="M495 619a8 8 0 1 1-15 0 8 8 0 0 1 15 0" fill="#5df" filter="url(#a)"/>
    <path transform="matrix(.28275 0 0 .22969 106 126)" d="M495 619a8 8 0 1 1-15 0 8 8 0 0 1 15 0" fill="#5df" filter="url(#a)"/>
    <path transform="matrix(.28275 0 0 .22969 112 126)" d="M495 619a8 8 0 1 1-15 0 8 8 0 0 1 15 0" fill="#5df" filter="url(#a)"/>
  </g>
  <g>
    <path d="M221 190v6l-2 4-6 3c-3 0-5-1-7-3l-1-4-1-6v-18l-4 19-2 7-2 3-5 1h-3l-3-4-2-7-4-18v17l-1 7-2 3c-1 2-3 3-6 3l-6-3-2-4v-38-7l2-4 4-2 6-1 6 1c2 0 2 1 4 3l1 2 2 6 4 22 5-22 2-7 4-4 7-1 7 1c2 0 3 2 4 4l1 3v6z" fill="#c83737" stroke="#a02c2c"/>
    <path transform="matrix(.28275 0 0 .22969 96 105)" d="M280 402a16 16 0 1 1-33 0 16 16 0 0 1 33 0" fill="#f4d7d7" stroke="#a02c2c" stroke-width="3"/>
    <path transform="matrix(.28275 0 0 .22969 104 109)" d="M216 363a27 27 0 1 1-54 0 27 27 0 0 1 54 0" fill="#f4d7d7" stroke="#a02c2c" stroke-width="3"/>
    <path d="M163 193c0 1-2 3-4 3s-3-2-3-3 1-3 3-3 4 1 4 3M173 196c0 2-1 3-3 3s-3-1-3-3 2-2 3-2l3 2" fill="#501616"/>
    <path d="M161 193l-1 1-2-1 2-1 1 1M171 196l-1 2-2-2 2-1 1 1" fill="#280b0b"/>
    <path d="M162 192l-1 1v-1c0-1 0 0 0 0h1" fill="#e9afaf"/>
    <path d="M172 196l-1 1v-1h1" fill="#ffd5d5"/>
    <path d="M172 190l-2 2-3-2c0-1 1-2 3-2s2 1 2 2M177 152l-2 1-1-1 2-1 1 1M171 157l-2 2 2 3c1 0 3-1 3-3s-1-2-3-2M167 149c-2 0-3 2-3 4s1 4 3 4 3-2 3-4-1-4-3-4M167 159c-1 0-2 1-2 3s1 2 2 2l1-2-1-3M177 168l-2 2 2 2 2-2-2-2" fill="#a02c2c"/>
    <path d="M177 152l-2 1-1-1 2-1 1 1M171 157l-2 2 2 3c1 0 3-1 3-3s-1-2-3-2M167 149c-2 0-3 2-3 4s1 4 3 4 3-2 3-4-1-4-3-4M167 159c-1 0-2 1-2 3s1 2 2 2l1-2-1-3M177 168l-2 2 2 2 2-2-2-2M217 176l-1 1-2-1 2-1 1 1M211 181c-1 0-2 1-2 3s1 2 3 2 2-1 2-2l-3-3M207 173c-2 0-3 2-3 4s1 4 3 4 3-2 3-4-1-4-3-4M207 184l-2 2 2 2 2-2-2-2M217 192l-1 2 1 2 2-2-2-2" fill="#a02c2c"/>
    <path d="M217 176l-1 1-2-1 2-1 1 1M211 181c-1 0-2 1-2 3s1 2 3 2 2-1 2-2l-3-3M207 173c-2 0-3 2-3 4s1 4 3 4 3-2 3-4-1-4-3-4M207 184l-2 2 2 2 2-2-2-2M217 192l-1 2 1 2 2-2-2-2M209 153c0 1-2 3-4 3s-4-2-4-3 2-3 4-3 4 1 4 3M209 158l-2 2-2-2 2-2 2 2M217 150c0 2-2 3-4 3s-4-1-4-3 2-3 4-3 4 1 4 3M194 190c0 1-1 2-3 2s-3-1-3-2l3-3c1 0 3 1 3 3M191 194l-2 2-2-2 2-1 2 1M185 178l-2 2c0 1 1 3 2 2l2-2-2-2" fill="#a02c2c"/>
    <path d="M194 190c0 1-1 2-3 2s-3-1-3-2l3-3c1 0 3 1 3 3M191 194l-2 2-2-2 2-1 2 1M185 178l-2 2c0 1 1 3 2 2l2-2-2-2M202 175h-3c-1-1-2-2-1-3l3-1c1 0 2 2 1 4M198 178h-3l-1-2 3-1 1 3M200 160l-3 1 1 3 2-1v-3" fill="#a02c2c"/>
    <path d="M202 175h-3c-1-1-2-2-1-3l3-1c1 0 2 2 1 4M198 178h-3l-1-2 3-1 1 3M200 160l-3 1 1 3 2-1v-3M173 179l-2 2 2 3c1 0 2-1 2-3s-1-3-2-2M169 171c-2 0-3 2-3 4s1 4 3 4 3-2 3-4-2-4-3-4M168 181l-1 3c0 2 1 2 2 2l1-3c0-2-1-2-2-2M169 165c-1 0-2 1-2 3s1 2 2 2l2-2-2-3" fill="#a02c2c"/>
    <path d="M173 179l-2 2 2 3c1 0 2-1 2-3s-1-3-2-2M169 171c-2 0-3 2-3 4s1 4 3 4 3-2 3-4-2-4-3-4M168 181l-1 3c0 2 1 2 2 2l1-3c0-2-1-2-2-2M169 165c-1 0-2 1-2 3s1 2 2 2l2-2-2-3M173 147l-1 1-2-1 2-1 1 1M185 161c-2 0-3 1-3 2l3 3c2 0 2-1 2-3s-1-2-2-2M180 153c-2 0-3 2-3 4s2 4 3 4 3-2 3-4-1-4-3-4M180 163c-1 0-2 1-2 3s1 2 2 2l2-2-2-3M181 150l-2 1-1-1 1-1 2 1" fill="#a02c2c"/>
    <path d="M185 161c-2 0-3 1-3 2l3 3c2 0 2-1 2-3s-1-2-2-2M180 153c-2 0-3 2-3 4s2 4 3 4 3-2 3-4-1-4-3-4M180 163c-1 0-2 1-2 3s1 2 2 2l2-2-2-3M216 167c-1 0-2 1-2 3s1 3 2 3l3-3c0-1-1-3-3-3M212 160c-2 0-3 1-3 4s1 3 3 3 3-1 3-4-1-4-3-3M212 170l-2 2 2 2 1-2-1-2" fill="#a02c2c"/>
    <path d="M216 167c-1 0-2 1-2 3s1 3 2 3l3-3c0-1-1-3-3-3M212 160c-2 0-3 1-3 4s1 3 3 3 3-1 3-4-1-4-3-3M212 170l-2 2 2 2 1-2-1-2M218 158l-1 1-2-1 2-2 1 2M213 196l-2 1-1-1 1-2 2 2" fill="#a02c2c"/>
    <path d="M213 196l-2 1-1-1 1-2 2 2M212 187l-2 2 2 3c1 0 2-1 2-3s-1-2-2-2M207 189c-1 0-2 1-1 3l1 2 2-2-2-3" fill="#a02c2c"/>
    <path d="M212 187l-2 2 2 3c1 0 2-1 2-3s-1-2-2-2M207 189c-1 0-2 1-1 3l1 2 2-2-2-3M171 157l-2 2 2 3c1 0 3-1 3-3s-1-2-3-2M167 159c-1 0-2 1-2 3s1 2 2 2l1-2-1-3" fill="#a02c2c"/>
    <path d="M171 157l-2 2 2 3c1 0 3-1 3-3s-1-2-3-2M167 159c-1 0-2 1-2 3s1 2 2 2l1-2-1-3M185 161c-2 0-3 1-3 2l3 3c2 0 2-1 2-3s-1-2-2-2M180 163c-1 0-2 1-2 3s1 2 2 2l2-2-2-3" fill="#a02c2c"/>
    <path d="M185 161c-2 0-3 1-3 2l3 3c2 0 2-1 2-3s-1-2-2-2M180 163c-1 0-2 1-2 3s1 2 2 2l2-2-2-3" fill="#a02c2c"/>
  </g>
  <g>
    <path d="M199 106c-2 0-3 1-2 3l2 2 2-2-2-3M194 109l-2 2 2 2 2-2-2-2" fill="#ddafe9"/>
    <path d="M211 114v7l-2 4c-2 2-5 3-7 3-3 0-5-1-7-3l-2-4-1-7v-8h-13v15l-2 4a9 9 0 0 1-11 3l-3-3-2-4-1-7V83l1-7 2-4c2-2 4-3 7-3l3 1 4 2 2 4v13h13v-6l1-7 2-4c2-2 4-3 7-3l3 1 4 2 1 3 1 3v5z" fill="#bc5fd3" stroke="#ab37c8"/>
    <path transform="matrix(.28275 0 0 .22969 92 -62)" d="M327 662a15 15 0 1 1-31 0 15 15 0 0 1 31 0" fill="#f6d5ff" stroke="#672178" stroke-width="3"/>
    <path transform="matrix(.39992 0 0 .32487 50 -124)" d="M365 656a11 11 0 1 1-23 0 11 11 0 0 1 23 0" fill="#f6d5ff" stroke="#672178" stroke-width="2"/>
    <path d="M195 89c0 1-1 2-3 2s-2-1-2-2l2-2 3 2M184 90c0 1-1 2-3 2s-2-1-2-2l2-2 3 2" fill="#672178"/>
    <path d="M194 88l-2 1-1-1 1-1 2 1M183 90l-1 1-2-1 2-1 1 1" fill="#441650"/>
    <path d="M194 88h-1-1l1-1 1 1M183 89l-1 1-1-1h2" fill="#ddafe9"/>
    <path transform="matrix(.39992 0 0 .32487 50 -124)" d="M365 656a11 11 0 1 1-23 0 11 11 0 0 1 23 0" fill="#f6d5ff" stroke="#672178" stroke-width="2"/>
    <path d="M195 89c0 1-1 2-3 2s-2-1-2-2l2-2 3 2M184 90c0 1-1 2-3 2s-2-1-2-2l2-2 3 2" fill="#672178"/>
    <path d="M194 88l-2 1-1-1 1-1 2 1M183 90l-1 1-2-1 2-1 1 1" fill="#441650"/>
    <path d="M194 88h-1-1l1-1 1 1M183 89l-1 1-1-1h2M175 103l-1 1-2-1 2-2 1 2M174 108l-2 2 2 3c1 0 3-1 3-3s-1-2-3-2M165 100c-2 0-3 2-3 4s2 4 3 4 3-2 3-4-1-4-3-4M165 110c-1 0-2 1-2 3s1 2 2 2l2-2-2-3M175 119l-1 2 2 2 1-2-2-2" fill="#ddafe9"/>
    <path d="M175 103l-1 1-2-1 2-2 1 2M193 100c-1 0-2 1-2 3s1 2 2 2l2-3c0-2-1-2-2-2M165 100c-2 0-3 2-3 4s2 4 3 4 3-2 3-4-1-4-3-4M165 110c-1 0-2 1-2 3s1 2 2 2l2-2-2-3M175 119l-1 2 2 2 1-2-2-2M167 85l-2 1-2-1 2-2 2 2M175 77c0 1-2 3-4 3s-4-2-4-3 2-3 4-3 4 1 4 3M174 94c-1 0-2 1-2 3s1 2 3 2 2-1 2-3-1-2-3-2M170 86c-2 0-3 2-3 4s1 4 3 4 3-2 3-4-1-4-3-4M170 97l-2 2 2 2 1-2-1-2" fill="#ddafe9"/>
    <path d="M174 94c-1 0-2 1-2 3s1 2 3 2 2-1 2-3-1-2-3-2M170 86c-2 0-3 2-3 4s1 4 3 4 3-2 3-4-1-4-3-4M170 97l-2 2 2 2 1-2-1-2M176 84l-1 2-2-2 2-1 1 1M171 122l-2 2-1-2 1-1 2 1" fill="#ddafe9"/>
    <path d="M171 122l-2 2-1-2 1-1 2 1M170 113l-2 3 2 3c1 0 2-1 2-3s-1-3-2-3M165 116l-1 2 1 3c1 0 2-1 2-3s-1-2-2-2" fill="#ddafe9"/>
    <path d="M170 113l-2 3 2 3c1 0 2-1 2-3s-1-3-2-3M165 116l-1 2 1 3c1 0 2-1 2-3s-1-2-2-2M204 119l-2 2-3-2c0-1 1-2 3-2s2 1 2 2M209 81l-2 1-1-1 1-1 2 1M203 86c-1 0-2 1-2 3s1 2 2 2l3-2c0-1-1-3-3-3M199 78c-2 0-3 2-3 4s1 4 3 4 3-2 3-4-1-4-3-4M199 89l-2 2 2 2 1-2-1-2" fill="#ddafe9"/>
    <path d="M209 81l-2 1-1-1 1-1 2 1M203 86c-1 0-2 1-2 3s1 2 2 2l3-2c0-1-1-3-3-3M199 78c-2 0-3 2-3 4s1 4 3 4 3-2 3-4-1-4-3-4M199 89l-2 2 2 2 1-2-1-2M205 108c-1 0-2 1-2 3s1 2 2 2l2-3c0-2-1-2-2-2M201 100c-2 0-3 2-3 4s1 4 3 4 3-2 3-4-2-4-3-4M200 110l-1 3 1 2 2-2-2-3M201 95l-2 2 2 2 2-2-2-2" fill="#ddafe9"/>
    <path d="M205 108c-1 0-2 1-2 3s1 2 2 2l2-3c0-2-1-2-2-2M201 100c-2 0-3 2-3 4s1 4 3 4 3-2 3-4-2-4-3-4M200 110l-1 3 1 2 2-2-2-3M201 95l-2 2 2 2 2-2-2-2M205 76l-1 2-2-2 2-1 1 1M191 97l-1 1-2-1 2-1 1 1M181 94c-2 0-3 2-3 4s1 4 3 4 3-2 3-4-1-4-3-4" fill="#ddafe9"/>
    <path d="M191 97l-1 1-2-1 2-1 1 1M181 94c-2 0-3 2-3 4s1 4 3 4 3-2 3-4-1-4-3-4M195 95l-2 2-1-2 1-1 2 1" fill="#ddafe9"/>
  </g>
  <g>
    <path d="M210 267l-1 5-3 3-5 1-5-1c-2 0-2-2-3-3l-4-6-3-8-3-4-2-2h-1v17c0 2-1 2-2 3-2 2-5 3-7 3-3 0-5-1-7-3l-2-3-1-7v-31l1-6v-2l2-3 2-2 4-1h17l7 1 6 1 6 4 3 5c2 2 1 4 1 6l-2 8a16 16 0 0 1-7 8l3 5 4 7 2 5zm-19-31c0-2-1-3-2-3h-9v6h5l4-1 2-2z" fill="#bc5fd3" stroke="#ab37c8"/>
    <path transform="matrix(.28275 0 0 .22969 92 84)" d="M327 662a15 15 0 1 1-31 0 15 15 0 0 1 31 0" fill="#f6d5ff" stroke="#672178" stroke-width="3"/>
    <path transform="matrix(.39992 0 0 .32487 49 21)" d="M365 656a11 11 0 1 1-23 0 11 11 0 0 1 23 0" fill="#f6d5ff" stroke="#672178" stroke-width="2"/>
    <path d="M194 234l-2 2-3-2 3-2 2 2M183 236l-2 2-3-2 3-2 2 2" fill="#672178"/>
    <path d="M193 234l-1 1-1-1 1-1 1 1M182 236l-1 1-1-1 1-1 1 1" fill="#441650"/>
    <path d="M193 234h-1l1-1v1M182 235v1l-1-1 1-1v1" fill="#ddafe9"/>
    <path transform="matrix(.39992 0 0 .32487 49 21)" d="M365 656a11 11 0 1 1-23 0 11 11 0 0 1 23 0" fill="#f6d5ff" stroke="#672178" stroke-width="2"/>
    <path d="M194 234l-2 2-3-2 3-2 2 2M183 236l-2 2-3-2 3-2 2 2" fill="#672178"/>
    <path d="M193 234l-1 1-1-1 1-1 1 1M182 236l-1 1-1-1 1-1 1 1" fill="#441650"/>
    <path d="M193 234h-1l1-1v1M182 235v1l-1-1 1-1v1M165 251c-2 0-3 1-3 3s2 3 3 3l2-3-2-3M173 267c0 1-1 2-3 2s-2-1-2-2l2-2 3 2M178 229l-2 1-1-1 1-1 2 1M172 234c-1 0-2 1-2 3s1 2 2 2l3-2c0-1-1-3-3-3M168 226c-2 0-3 2-3 4s1 4 3 4 3-2 3-4-1-4-3-4M168 237l-2 2 2 2 1-2-1-2" fill="#ddafe9"/>
    <path d="M178 229l-2 1-1-1 1-1 2 1M172 234c-1 0-2 1-2 3s1 2 2 2l3-2c0-1-1-3-3-3M168 226c-2 0-3 2-3 4s1 4 3 4 3-2 3-4-1-4-3-4M168 237l-2 2 2 2 1-2-1-2M174 256c-1 0-2 1-2 3s1 2 2 2l2-3c0-2-1-2-2-2M194 249c-2 0-3 2-3 4s1 4 3 4 3-2 3-4-2-4-3-4M169 259l-1 2 1 2 2-2-2-2M170 243l-2 2 2 2 2-2-2-2" fill="#ddafe9"/>
    <path d="M174 256c-1 0-2 1-2 3s1 2 2 2l2-3c0-2-1-2-2-2M178 244c-2 0-3 2-3 4s1 4 3 4 3-2 3-4-1-4-3-4M171 249l-2 2 2 2 2-2-2-2M170 243l-2 2 2 2 2-2-2-2M174 224l-1 2-2-2 2-1 1 1M178 222l-1 1-2-1 2-1 1 1M191 223l-2 2 2 3c1 0 2-1 2-3s-1-2-2-2M203 267c-2 0-3 1-3 4s1 3 3 3 3-1 3-4-1-4-3-3M197 226c-1 0-2 1-2 3s1 2 2 2l1-3-1-2M207 235l-1 2 1 2 2-2-2-2M195 220l-2 2-1-2 1-1 2 1M184 219c-2 0-4 2-4 4s2 4 4 4 3-2 3-4-2-4-3-4" fill="#ddafe9"/>
    <path d="M197 226c-1 0-2 1-2 3s1 2 2 2l1-3-1-2M207 235l-1 2 1 2 2-2-2-2M205 262l-2 1-2-1 2-2 2 2M201 221c-2 0-3 1-3 4s1 4 3 4 3-2 3-4-1-4-3-4M200 251l-2 2 2 2 2-2-2-2M193 260l-2 3c0 1 1 3 3 3s2-2 2-3l-3-3M187 241c-2 0-3 2-3 4s1 4 3 4 3-2 3-4-2-4-3-4M187 250c-1 0-2 1-2 3s1 2 2 2l2-2-2-3M200 260l-2 2-1-2 1-1 2 1M197 241l-2 2-1-2 1-1 2 1M198 269l-1 1-2-1 2-1 1 1M202 231c-1 0-2 1-2 3s1 2 2 2l2-2-2-3M195 245l-1 2 2 2 1-2-2-2M201 240c-2 0-2 1-2 2l2 3c1 0 2-1 2-3s-1-2-2-2M169 219l-2 2c0 1 1 3 2 2l2-2-2-2" fill="#ddafe9"/>
  </g>
  <g>
    <path d="M138 270l-2 4-3 3-3 1-6-1-7-5-12 2c-4 0-9-1-12-3l-9-6-6-9c-2-4-1-8-1-12 0-6 1-11 3-15s5-8 9-10a36 36 0 0 1 29-2c4 1 7 3 9 6l5 9 2 12c0 7-1 13-4 17l2 2h1l1 1 3 2 1 4zm-23-27l-2-8c-1-2-4-4-8-4-3 0-5 1-7 3s-2 6-2 10v5l1 3 2 2c1 2 3 3 6 3a9 9 0 0 0 8-4l2-9z" fill="#fc0" stroke="#af8b00"/>
    <path d="M221 333a20 20 0 1 1-40 0 20 20 0 0 1 40 0" fill="#fea" stroke="#a80" stroke-width="3" transform="matrix(.28275 0 0 .22969 74 185)"/>
    <path d="M136 261c0 2-2 3-3 3l-3-3c0-2 1-2 3-2s3 1 3 2" fill="#540"/>
    <path d="M135 262h-2l1-1 1 1" fill="#2b2200"/>
    <path d="M134 261h-1c-1 0 0 0 0 0v-1l1 1" fill="#fea"/>
    <path d="M90 245s0 3 2 2 1-4 2-4l2 1M99 228s-2 2 0 2l4-1v2M93 232s-2 3 0 3l4-2 1 2M93 256s0 3 2 2 1-4 2-4l2 1M114 252s0 3 2 3 1-4 2-4l2 1M115 246s-1 3 1 3l4-3 1 2M115 243s2 1 3 0 0-3 1-3l3-1M90 239s0 3 2 2 1-4 2-4l2 1M90 250s0 3 2 3 1-4 2-4l2 1M111 256s-2 1-1 2h5v2M106 226s-3 1-2 2l5 1c1 1-1 2-1 2M115 229s-2-2-3-1 2 4 2 5h-2M119 234s-1-2-3-1 1 4 0 4h-2M97 261s2 2 3 1-1-4 0-5h2M107 264s3 0 2-2-3-1-4-2 1-2 1-2" fill="none" stroke="#a80"/>
  </g>
  <g>
    <path d="M135 112l-1 6c0 2-2 2-4 4l-8 4c-4 2-9 2-14 2s-9 0-13-2l-9-7-6-9c-2-4-1-7-1-11s0-9 2-12l6-10c5-5 13-8 22-8l12 2c4 1 5 2 7 4l4 5 1 4c0 2-1 4-3 5l-6 2c-3 0-6-1-8-3l-3-2-5-1c-4 0-6 1-8 4l-2 9 1 8 3 5 7 2 4-1 5-1v-2h-3c-4 0-6 0-8-2s-2-2-2-5l2-5c1-1 3-2 7-2h10l6 1c2 1 3 1 3 3l2 7z" fill="#fc0" stroke="#af8b00"/>
    <path d="M221 333a20 20 0 1 1-40 0 20 20 0 0 1 40 0" fill="#fea" stroke="#a80" stroke-width="3" transform="matrix(.28275 0 0 .22969 73 8)"/>
    <path d="M134 85l-2 2-3-2c0-1 1-3 3-3s2 1 2 3" fill="#540"/>
    <path d="M134 85l-1 1-1-1 1-1 1 1" fill="#2b2200"/>
    <path d="M133 84h-1 1" fill="#fea"/>
    <path d="M92 99s0 3 1 2l3-3 1 1M101 82s-2 2-1 3 4-2 5-1v2M95 87s-2 2 0 2l4-2 1 2M95 110s0 3 2 2 1-3 2-3l2 1M92 93s0 3 2 3 1-4 2-4l2 1M92 105s0 3 2 2 1-4 2-4l2 1M99 115s2 3 3 1-1-4-1-4h2" fill="none" stroke="#a80"/>
  </g>
</svg>
